# xmcd
#
# Track frame offsets:
#  150
#  19747
#  39330
#  60567
#
# Disc length: 1038 seconds
#
# Revision: 0
# Processed by: cddbd v1.5.1PL2 Copyright (c) Steve Scherf et al.
# Submitted via: Collectorz.com_Music_Collector 6.9
#
DISCID=27040c04
DTITLE=Domino - Getto  Jam
DYEAR=1993
DGENRE=Hip Hop/Rap
TTITLE0=Getto  Jam (Radio Edit)
TTITLE1=Getto  Jam (LP Version)
TTITLE2=Getto  Jam (Instrumental)
TTITLE3=Jam (LP Version)
EXTD=
EXTT0=
EXTT1=
EXTT2=
EXTT3=
PLAYORDER=
